HIERARCHY
ROOT Bip001_Pelvis
{
  OFFSET 7.937 94.8971 -8.5489
  CHANNELS 6 Xposition Yposition Zposition Zrotation Xrotation Yrotation
  JOINT Bip001_Spine
  {
    OFFSET 1.44608e-005 10.4157 -0.0118244
    CHANNELS 3 Zrotation Xrotation Yrotation
    JOINT Bip001_L_Thigh
    {
      OFFSET 11.2582 -10.4157 0.0118432
      CHANNELS 3 Zrotation Xrotation Yrotation
      JOINT Bip001_L_Calf
      {
        OFFSET -0.720717 -44.8687 0.366937
        CHANNELS 3 Zrotation Xrotation Yrotation
        JOINT Bip001_L_Foot
        {
          OFFSET -0.664439 -41.3745 -3.62995
          CHANNELS 3 Zrotation Xrotation Yrotation
          JOINT Bip001_L_Toe0
          {
            OFFSET 0.0541047 -10.4146 13.4033
            CHANNELS 3 Zrotation Xrotation Yrotation
            End Site
            {
              OFFSET -1.04503e-005 0 7.70137
            }
          }
        }
      }
    }
    JOINT Bip001_R_Thigh
    {
      OFFSET -11.2582 -10.4156 0.0118122
      CHANNELS 3 Zrotation Xrotation Yrotation
      JOINT Bip001_R_Calf
      {
        OFFSET 0.72059 -44.8687 0.36676
        CHANNELS 3 Zrotation Xrotation Yrotation
        JOINT Bip001_R_Foot
        {
          OFFSET 0.664321 -41.3745 -3.62979
          CHANNELS 3 Zrotation Xrotation Yrotation
          JOINT Bip001_R_Toe0
          {
            OFFSET -0.05417 -10.4146 13.4033
            CHANNELS 3 Zrotation Xrotation Yrotation
            End Site
            {
              OFFSET -1.04873e-005 0 7.70137
            }
          }
        }
      }
    }
    JOINT Bip001_Spine1
    {
      OFFSET 1.90638e-005 14.8539 1.10727
      CHANNELS 3 Zrotation Xrotation Yrotation
      JOINT Bip001_Spine2
      {
        OFFSET 2.28934e-005 14.7848 -1.7233
        CHANNELS 3 Zrotation Xrotation Yrotation
        JOINT Bip001_Neck
        {
          OFFSET 2.24514e-005 15.6905 -0.498826
          CHANNELS 3 Zrotation Xrotation Yrotation
          JOINT Bip001_L_Clavicle
          {
            OFFSET 6.17691 -0.000591152 0.00852867
            CHANNELS 3 Zrotation Xrotation Yrotation
            JOINT Bip001_L_UpperArm
            {
              OFFSET 11.773 -0.0611878 0.00197697
              CHANNELS 3 Zrotation Xrotation Yrotation
              JOINT Bip001_L_Forearm
              {
                OFFSET 26.4515 0.0817568 -2.19579
                CHANNELS 3 Zrotation Xrotation Yrotation
                JOINT Bip001_L_Hand
                {
                  OFFSET 32.8677 0.156744 1.67112
                  CHANNELS 3 Zrotation Xrotation Yrotation
                  JOINT Bip001_L_Finger0
                  {
                    OFFSET 6.16268 -2.25226 6.01674
                    CHANNELS 3 Zrotation Xrotation Yrotation
                    End Site
                    {
                      OFFSET 4.30499 -1.46662 0.618148
                    }
                  }
                  JOINT Bip001_L_Finger1
                  {
                    OFFSET 11.2957 -0.718374 -0.201963
                    CHANNELS 3 Zrotation Xrotation Yrotation
                    End Site
                    {
                      OFFSET 6.31952 -0.405163 -0.0802303
                    }
                  }
                }
              }
            }
          }
          JOINT Bip001_R_Clavicle
          {
            OFFSET -6.17691 -0.000574027 0.00851165
            CHANNELS 3 Zrotation Xrotation Yrotation
            JOINT Bip001_R_UpperArm
            {
              OFFSET -11.773 -0.0611516 0.00194365
              CHANNELS 3 Zrotation Xrotation Yrotation
              JOINT Bip001_R_Forearm
              {
                OFFSET -26.4514 0.0822334 -2.19736
                CHANNELS 3 Zrotation Xrotation Yrotation
                JOINT Bip001_R_Hand
                {
                  OFFSET -32.8677 0.156817 1.67144
                  CHANNELS 3 Zrotation Xrotation Yrotation
                  JOINT Bip001_R_Finger0
                  {
                    OFFSET -6.1627 -2.25224 6.0167
                    CHANNELS 3 Zrotation Xrotation Yrotation
                    End Site
                    {
                      OFFSET -4.30499 -1.46662 0.618134
                    }
                  }
                  JOINT Bip001_R_Finger1
                  {
                    OFFSET -11.2958 -0.718344 -0.201994
                    CHANNELS 3 Zrotation Xrotation Yrotation
                    End Site
                    {
                      OFFSET -6.31952 -0.405146 -0.0802475
                    }
                  }
                }
              }
            }
          }
          JOINT Bip001_Head
          {
            OFFSET 1.11782e-005 11.4912 2.09908
            CHANNELS 3 Zrotation Xrotation Yrotation
            End Site
            {
              OFFSET 2.95144e-005 21.2823 -2.83069e-005
            }
          }
        }
      }
    }
  }
}
MOTION
Frames:	6
Frame Time:	0.04
8.80858 95.5047 -8.18697 -0.454544 -0.587957 -1.14703 -0.105126 2.18257 0.200829 5.43389 -9.23252 9.41735 -1.01849 15.4935 -0.316139 -2.51381 -6.93516 0.856156 0.703387 -9.80116 0.413815 -8.23452 -7.44115 -0.671752 0.213112 13.4051 1.97329 2.35401 -7.01875 -7.9672 -1.0617 -11.6156 1.24011 -0.41784 4.36595 0.394597 -0.41784 4.36597 0.394598 1.18581 12.0174 -3.18724 -32.1163 -6.50802 -13.9782 -44.4251 41.0641 1.65565 14.0278 0.604179 -28.7623 -1.9262 -0.179241 -1.05964 8.82781e-032 -3.18055e-015 1.59028e-015 -3.18055e-015 -3.18056e-015 -1.59028e-015 35.2363 -1.46473 20.8428 46.3019 37.8057 -9.5162 5.74437 -34.9758 23.8923 7.9321 0.872837 -24.0622 -1.59028e-015 -3.18055e-015 3.18055e-015 -7.95139e-016 -3.18056e-015 -0 -1.43686 11.1075 -2.24685 
8.69231 95.5052 -8.10606 -0.509467 -0.753553 -1.48894 -0.0977166 2.18257 0.128787 5.55722 -8.93888 8.99007 -1.18113 15.4778 0.180184 -2.58578 -7.03959 1.16498 0.707955 -9.79774 0.440798 -8.0964 -7.34005 -0.209282 0.255717 13.4363 2.04047 2.23496 -7.04919 -8.05782 -1.06447 -11.6127 1.22664 -0.377523 4.36566 0.250021 -0.378212 4.36566 0.249994 1.08785 12.1699 -2.89089 -31.9383 -6.60322 -14.0237 -44.8537 41.0152 1.74272 13.874 0.864613 -28.2898 -2.06827 -0.184829 -1.0521 3.18055e-015 3.18055e-015 -0 0 0 -0 35.6316 -1.86305 20.2625 47.1944 34.9444 -10.6946 6.25177 -35.2629 27.2893 8.39154 0.509299 -23.1664 1.59028e-015 1.59028e-015 -3.18055e-015 7.95139e-016 1.59028e-015 3.18055e-015 -1.46426 10.9997 -1.98402 
8.58486 95.5072 -8.04708 -0.531443 -0.873801 -1.73198 -0.0765165 2.15837 0.0565818 5.60373 -8.68437 8.18944 -1.37515 15.4005 0.878031 -2.66635 -7.09543 1.53489 0.715161 -9.78489 0.483771 -8.02234 -7.2615 0.00260334 0.283908 13.5023 2.14252 2.14157 -7.09151 -8.05028 -1.06526 -11.6111 1.22293 -0.335082 4.31663 0.104695 -0.335082 4.31663 0.104696 1.04201 12.3733 -2.68802 -31.7875 -6.7169 -14.2188 -45.3949 40.3029 1.90589 13.54 1.64118 -27.8854 -1.95457 -0.161315 -1.05572 -1.59028e-015 -3.18055e-015 -1.59028e-015 -1.59028e-015 -3.18056e-015 -0 35.8113 -2.29159 19.81 47.1878 32.442 -10.6939 6.81758 -34.5284 29.5971 8.4363 0.259397 -22.5073 3.97569e-016 -1.59028e-015 1.59028e-015 -7.95139e-016 -1.59028e-015 3.18055e-015 -1.56796 10.875 -1.7697 
8.47317 95.5021 -7.96613 -0.575758 -1.05665 -1.8711 -0.0514985 2.13871 -0.0269258 5.71277 -8.40043 8.43769 -1.34806 15.4333 0.736494 -2.75901 -7.17648 1.58363 0.72919 -9.78466 0.510671 -7.92264 -7.08124 0.115337 0.279413 13.5671 2.30989 2.04497 -7.16819 -8.07736 -1.06726 -11.6096 1.2131 -0.281382 4.2775 -0.0628238 -0.281534 4.27752 -0.0628312 1.12366 12.4476 -2.58701 -31.7912 -6.7494 -14.3216 -46.3644 40.9696 2.85309 13.621 1.12568 -27.7885 -2.1067 -0.193956 -0.918897 0 3.18055e-015 -0 0 6.36111e-015 -0 35.823 -2.5603 19.4068 46.8649 30.5316 -10.3101 6.4543 -32.9273 31.2177 8.98064 0.130951 -22.2389 -1.19271e-015 -1.59028e-015 3.18055e-015 -7.95139e-016 -1.59028e-015 -0 -1.68142 10.8771 -1.60172 
8.31256 95.4959 -7.88436 -0.705049 -1.15481 -1.79238 0.00129127 2.08174 -0.149322 5.97352 -8.2479 8.82861 -1.36814 15.5961 0.559606 -2.84583 -7.28409 1.37817 0.733412 -9.78444 0.520728 -7.6852 -6.84981 0.103915 0.165214 13.5457 2.43262 1.95195 -7.2192 -8.09908 -1.04582 -11.6076 1.19439 -0.168366 4.16371 -0.309192 -0.168776 4.16371 -0.30921 1.04068 12.3828 -2.47441 -31.7502 -6.68688 -14.2358 -46.8868 41.6552 3.35025 13.3965 0.935186 -27.4274 -2.40483 -0.224135 -0.846222 3.18055e-015 0 2.38542e-015 3.18055e-015 3.18056e-015 1.59028e-015 35.7818 -2.55784 19.3581 46.6262 29.0799 -10.0676 4.8447 -30.7693 33.0689 9.19881 0.228221 -23.8331 -7.95139e-016 1.59028e-015 -3.18055e-015 -3.97569e-016 1.59028e-015 -1.59028e-015 -1.72945 11.0376 -1.50678 
8.22765 95.4862 -7.83896 -0.703873 -1.1995 -1.62144 0.00310303 1.99138 -0.232064 6.05719 -8.09357 9.17505 -1.32028 15.5949 0.119963 -2.85729 -7.31154 1.29795 0.728738 -9.76015 0.58366 -7.63732 -6.70331 0.797106 0.364165 13.6435 2.02313 1.84771 -7.35076 -8.45026 -1.06996 -11.5905 1.16229 -0.157036 3.98309 -0.47647 -0.16073 3.98309 -0.476358 1.28447 12.0283 -2.60863 -31.8342 -6.48718 -13.9032 -47.552 42.278 3.83286 13.3724 1.19983 -26.7115 -2.94043 -0.244118 -1.19557 0 0 -2.38542e-015 -1.59028e-015 0 -0 35.7139 -2.21374 19.1559 45.7073 24.6448 -10.2492 2.07249 -25.4596 37.0178 11.0123 0.55808 -27.5718 -0 -6.36111e-015 -0 1.32417e-031 -4.77083e-015 1.59028e-015 -1.93713 11.3811 -1.47216 
